<svg width="166" height="53" viewBox="0 0 166 53" fill="none" xmlns="http://www.w3.org/2000/svg">
<path fill-rule="evenodd" clip-rule="evenodd" d="M54.5734 25.2261C58.5695 22.639 59.7187 19.0387 70.9409 13.7816C91.4423 4.1774 112.346 8.4788 129.484 22.0851C129.678 22.239 132.993 25.399 133.022 25.4395C132.054 20.0594 123.681 11.4504 118.731 7.91067C104.14 -2.5235 84.2091 -2.60106 69.4011 7.47201C64.6426 10.7087 56.5655 18.4272 54.5734 25.2261Z" fill="#F4A900"/>
<path fill-rule="evenodd" clip-rule="evenodd" d="M86.9391 27.2341L86.966 28.596C86.966 28.596 90.0366 27.3586 90.3023 31.0017L90.3916 52.8046L94.5553 52.8963L94.7171 24.6447C94.3462 24.6522 93.6027 24.5769 93.0934 24.684L86.9391 27.2341Z" fill="white"/>
<path d="M10.5783 25.2764H15.7129L26.3298 52.4667H21.1564L18.5699 45.2693H7.567L4.9803 52.4667H0L10.5783 25.2764ZM8.87954 41.6514H17.2959L13.165 29.9604H13.049L8.87954 41.6514Z" fill="white"/>
<path d="M40.3083 39.3665C40.128 38.199 39.6327 37.291 38.8219 36.6437C38.0112 35.9964 36.9882 35.6727 35.7526 35.6727C35.1089 35.6727 34.4719 35.7744 33.8416 35.9773C33.2108 36.1808 32.6256 36.5426 32.085 37.0627C31.5445 37.5833 31.1067 38.3193 30.7723 39.2715C30.4374 40.2235 30.2703 41.4106 30.2703 42.8321C30.2703 43.6954 30.3729 44.5208 30.5792 45.3073C30.7849 46.0945 31.1004 46.8115 31.525 47.4588C31.9496 48.1062 32.4962 48.6203 33.1659 49.0013C33.8347 49.382 34.6327 49.5725 35.5595 49.5725C36.8462 49.5725 37.9078 49.1725 38.7446 48.373C39.5805 47.5732 40.1018 46.4754 40.3081 45.0788H44.7093C44.2973 47.6433 43.3062 49.6046 41.7366 50.9623C40.1664 52.3207 38.1074 52.9997 35.5595 52.9997C32.5222 52.9997 30.1479 52.0541 28.4366 50.1626C26.7246 48.2714 25.8691 45.8277 25.8691 42.8319C25.8691 39.7348 26.7185 37.1959 28.4171 35.2154C30.1158 33.2351 32.548 32.2451 35.7138 32.2451C38.1588 32.2451 40.2175 32.8544 41.8909 34.0729C43.5636 35.2917 44.503 37.0565 44.7093 39.3662H40.3083V39.3665Z" fill="white"/>
<path d="M60.2712 39.3665C60.0909 38.199 59.5956 37.291 58.7848 36.6437C57.974 35.9964 56.9511 35.6727 55.7155 35.6727C55.0718 35.6727 54.4348 35.7744 53.8045 35.9773C53.1736 36.1808 52.5884 36.5426 52.0479 37.0627C51.5074 37.5833 51.0694 38.3193 50.7352 39.2715C50.4003 40.2235 50.2332 41.4106 50.2332 42.8321C50.2332 43.6954 50.3357 44.5208 50.5421 45.3073C50.7477 46.0945 51.0633 46.8115 51.4879 47.4588C51.9125 48.1062 52.4591 48.6203 53.1288 49.0013C53.7976 49.382 54.5958 49.5725 55.5224 49.5725C56.8091 49.5725 57.8707 49.1725 58.7075 48.373C59.5434 47.5732 60.0647 46.4754 60.271 45.0788H64.6722C64.2602 47.6433 63.2691 49.6046 61.6995 50.9623C60.1292 52.3207 58.0703 52.9997 55.5224 52.9997C52.4851 52.9997 50.1108 52.0541 48.3994 50.1626C46.6875 48.2714 45.832 45.8277 45.832 42.8319C45.832 39.7348 46.6814 37.1959 48.3799 35.2154C50.0787 33.2351 52.5109 32.2451 55.6767 32.2451C58.1216 32.2451 60.1804 32.8544 61.8538 34.0729C63.5265 35.2917 64.4658 37.0565 64.6722 39.3662H60.2712V39.3665Z" fill="white"/>
<path d="M70.1961 43.7458C70.1961 45.3964 70.6595 46.7798 71.5861 47.8966C72.5126 49.0141 73.8379 49.5723 75.5622 49.5723C78.0332 49.5723 79.655 48.4811 80.4268 46.2973H84.5965C84.1334 48.4048 83.0716 50.0484 81.4114 51.2289C79.7513 52.4094 77.8015 52.9997 75.5625 52.9997C72.4994 52.9997 70.1058 52.0477 68.3817 50.1435C66.6569 48.2395 65.7952 45.7393 65.7952 42.6416C65.7952 41.2456 66.0201 39.9186 66.4707 38.662C66.9207 37.4054 67.5711 36.295 68.4202 35.33C69.2696 34.3654 70.2928 33.6103 71.4896 33.0641C72.6864 32.5185 74.005 32.2455 75.4469 32.2455C76.8618 32.2455 78.1555 32.5119 79.3267 33.0452C80.4979 33.5784 81.5081 34.3151 82.3575 35.2539C83.2068 36.1934 83.8497 37.2722 84.2879 38.4908C84.7253 39.7093 84.944 40.9792 84.944 42.2989C84.944 42.7816 84.9182 43.2641 84.867 43.746H70.1961V43.7458ZM80.4654 40.8896C80.3884 39.4425 79.8926 38.2116 78.9793 37.1959C78.0653 36.1808 76.8878 35.6727 75.4467 35.6727C73.9537 35.6727 72.7181 36.1678 71.7404 37.1578C70.7618 38.1479 70.2473 39.3921 70.1961 40.8896H80.4654Z" fill="white"/>
<path d="M117.157 25.5428C118.804 26.2794 120.2 27.3011 121.346 28.6084C122.491 29.9163 123.366 31.4329 123.971 33.159C124.576 34.886 124.878 36.7262 124.878 38.6809C124.878 40.6361 124.576 42.4766 123.971 44.2027C123.366 45.9294 122.491 47.4462 121.346 48.7533C120.2 50.0612 118.804 51.0829 117.157 51.8188C115.509 52.5551 113.682 52.9232 111.675 52.9232C109.667 52.9232 107.84 52.5551 106.193 51.8188C104.545 51.0827 103.149 50.0612 102.004 48.7533C100.859 47.446 99.9832 45.9294 99.3787 44.2027C98.7736 42.4764 98.4714 40.6361 98.4714 38.6809C98.4714 36.7262 98.7736 34.8858 99.3787 33.159C99.9832 31.4329 100.859 29.9161 102.004 28.6084C103.149 27.3011 104.545 26.2794 106.193 25.5428C107.84 24.8069 109.667 24.4384 111.675 24.4384C113.682 24.4384 115.509 24.8069 117.157 25.5428ZM107.949 29.1797C106.881 29.7509 106.006 30.5192 105.324 31.4836C104.642 32.4488 104.133 33.553 103.799 34.7968C103.464 36.041 103.297 37.3357 103.297 38.6811C103.297 40.0271 103.464 41.3153 103.799 42.5463C104.133 43.7781 104.642 44.8823 105.324 45.8595C106.006 46.8372 106.881 47.6113 107.949 48.1825C109.017 48.7537 110.259 49.0394 111.675 49.0394C113.09 49.0394 114.332 48.7537 115.4 48.1825C116.468 47.6113 117.344 46.8372 118.026 45.8595C118.707 44.8825 119.216 43.7781 119.55 42.5463C119.885 41.3151 120.053 40.0268 120.053 38.6811C120.053 37.3357 119.885 36.0475 119.55 34.8159C119.216 33.5847 118.707 32.4805 118.026 31.5028C117.343 30.5258 116.468 29.7511 115.4 29.1799C114.332 28.6086 113.09 28.323 111.675 28.323C110.259 28.3228 109.017 28.6084 107.949 29.1797Z" fill="#F4A900"/>
<path d="M127.159 32.588H131.328V35.4822L131.406 35.5583C132.075 34.4672 132.95 33.6103 134.031 32.9878C135.112 32.3661 136.309 32.0548 137.622 32.0548C139.835 32.0548 141.566 32.6325 142.814 33.7876C144.062 34.9431 144.687 36.5997 144.687 38.7572V52.2763H140.286V39.8997C140.26 38.3764 139.932 37.2596 139.301 36.5484C138.67 35.838 137.699 35.4822 136.387 35.4822C134.945 35.4822 133.78 35.9773 132.893 36.9674C132.005 37.9574 131.561 39.1892 131.561 40.6612V52.276H127.159V32.588H127.159Z" fill="#F4A900"/>
<path d="M151.252 43.5554C151.252 45.206 151.716 46.5894 152.642 47.7062C153.569 48.8237 154.894 49.3819 156.619 49.3819C159.089 49.3819 160.711 48.2907 161.483 46.1069H165.653C165.189 48.2144 164.128 49.8579 162.468 51.0385C160.808 52.219 158.858 52.8094 156.619 52.8094C153.556 52.8094 151.162 51.8573 149.438 49.9531C147.713 48.0491 146.851 45.5489 146.851 42.4512C146.851 41.0552 147.076 39.7282 147.527 38.4716C147.977 37.215 148.627 36.1046 149.477 35.1395C150.326 34.1749 151.349 33.4198 152.546 32.8736C153.743 32.3281 155.061 32.0551 156.503 32.0551C157.918 32.0551 159.212 32.3214 160.383 32.8548C161.554 33.388 162.564 34.1247 163.414 35.0634C164.263 36.003 164.906 37.0818 165.344 38.3003C165.782 39.5189 166 40.7888 166 42.1085C166 42.5912 165.975 43.0737 165.923 43.5556H151.252V43.5554ZM161.521 40.6992C161.444 39.2521 160.949 38.0211 160.035 37.0054C159.121 35.9904 157.944 35.4822 156.503 35.4822C155.009 35.4822 153.774 35.9774 152.796 36.9674C151.818 37.9574 151.303 39.2017 151.252 40.6992H161.521Z" fill="#F4A900"/>
</svg>
